<mxfile host="app.diagrams.net" modified="2021-03-03T11:10:55.965Z" agent="5.0 (Windows NT 10.0; Win64; x64) AppleWebKit/537.36 (KHTML, like Gecko) Chrome/88.0.4324.190 Safari/537.36" etag="wcWlM1Cxd8zMpmaNcMXv" version="13.10.9" type="github">
  <diagram name="Page-1" id="c4acf3e9-155e-7222-9cf6-157b1a14988f">
    <mxGraphModel dx="1567" dy="1082" grid="1" gridSize="10" guides="1" tooltips="1" connect="1" arrows="1" fold="1" page="1" pageScale="1" pageWidth="850" pageHeight="1100" background="#ffffff" math="0" shadow="0">
      <root>
        <mxCell id="0" />
        <mxCell id="1" parent="0" />
        <mxCell id="17acba5748e5396b-1" value="Full-stack World App" style="shape=umlFrame;whiteSpace=wrap;html=1;rounded=0;shadow=0;comic=0;labelBackgroundColor=none;strokeWidth=1;fontFamily=Verdana;fontSize=10;align=center;width=130;height=20;" parent="1" vertex="1">
          <mxGeometry y="20" width="1240" height="630" as="geometry" />
        </mxCell>
        <mxCell id="g_WhYc-PaGwsbGc_RVKx-27" value="MongoDB Atlas" style="shape=umlFrame;whiteSpace=wrap;html=1;labelBackgroundColor=#ffffff;dashed=1;width=110;height=20;" vertex="1" parent="1">
          <mxGeometry x="30" y="470" width="1160" height="150" as="geometry" />
        </mxCell>
        <mxCell id="g_WhYc-PaGwsbGc_RVKx-26" value="Heroku" style="shape=umlFrame;whiteSpace=wrap;html=1;labelBackgroundColor=#ffffff;dashed=1;width=60;height=20;" vertex="1" parent="1">
          <mxGeometry x="30" y="150" width="1160" height="300" as="geometry" />
        </mxCell>
        <mxCell id="g_WhYc-PaGwsbGc_RVKx-3" value="world-web" style="shape=folder;fontStyle=1;tabWidth=70;tabHeight=20;tabPosition=left;html=1;boundedLbl=1;labelInHeader=1;" vertex="1" parent="1">
          <mxGeometry x="310" y="170" width="350" height="70" as="geometry" />
        </mxCell>
        <mxCell id="g_WhYc-PaGwsbGc_RVKx-4" value="Frontend React app" style="html=1;" vertex="1" parent="g_WhYc-PaGwsbGc_RVKx-3">
          <mxGeometry width="330" height="30" relative="1" as="geometry">
            <mxPoint x="10" y="30" as="offset" />
          </mxGeometry>
        </mxCell>
        <mxCell id="g_WhYc-PaGwsbGc_RVKx-12" value="" style="edgeStyle=orthogonalEdgeStyle;rounded=0;orthogonalLoop=1;jettySize=auto;html=1;entryX=0;entryY=0;entryDx=210;entryDy=20;entryPerimeter=0;" edge="1" parent="1" source="g_WhYc-PaGwsbGc_RVKx-8" target="g_WhYc-PaGwsbGc_RVKx-3">
          <mxGeometry relative="1" as="geometry">
            <mxPoint x="185" y="70" as="targetPoint" />
          </mxGeometry>
        </mxCell>
        <mxCell id="g_WhYc-PaGwsbGc_RVKx-8" value="User" style="shape=umlActor;verticalLabelPosition=bottom;verticalAlign=top;html=1;labelBackgroundColor=#ffffff;" vertex="1" parent="1">
          <mxGeometry x="505" y="30" width="30" height="60" as="geometry" />
        </mxCell>
        <mxCell id="g_WhYc-PaGwsbGc_RVKx-35" style="edgeStyle=orthogonalEdgeStyle;rounded=0;orthogonalLoop=1;jettySize=auto;html=1;exitX=0.5;exitY=1;exitDx=0;exitDy=0;exitPerimeter=0;entryX=0.5;entryY=0;entryDx=0;entryDy=0;entryPerimeter=0;" edge="1" parent="1" source="g_WhYc-PaGwsbGc_RVKx-13" target="g_WhYc-PaGwsbGc_RVKx-22">
          <mxGeometry relative="1" as="geometry" />
        </mxCell>
        <mxCell id="g_WhYc-PaGwsbGc_RVKx-13" value="world-api" style="shape=folder;fontStyle=1;tabWidth=70;tabHeight=20;tabPosition=left;html=1;boundedLbl=1;labelInHeader=1;" vertex="1" parent="1">
          <mxGeometry x="50" y="360" width="300" height="70" as="geometry" />
        </mxCell>
        <mxCell id="g_WhYc-PaGwsbGc_RVKx-14" value="Node.js/Express.js World API&lt;br&gt;Serves the world data (countries/cities/languages)" style="html=1;" vertex="1" parent="g_WhYc-PaGwsbGc_RVKx-13">
          <mxGeometry width="280" height="30" relative="1" as="geometry">
            <mxPoint x="10" y="30" as="offset" />
          </mxGeometry>
        </mxCell>
        <mxCell id="g_WhYc-PaGwsbGc_RVKx-16" value="" style="edgeStyle=orthogonalEdgeStyle;rounded=0;orthogonalLoop=1;jettySize=auto;html=1;exitX=0.5;exitY=1;exitDx=0;exitDy=0;exitPerimeter=0;entryX=0;entryY=0;entryDx=435;entryDy=20;entryPerimeter=0;" edge="1" parent="1" source="g_WhYc-PaGwsbGc_RVKx-3" target="g_WhYc-PaGwsbGc_RVKx-5">
          <mxGeometry relative="1" as="geometry">
            <mxPoint x="260" y="100" as="sourcePoint" />
            <mxPoint x="350" y="100" as="targetPoint" />
          </mxGeometry>
        </mxCell>
        <mxCell id="g_WhYc-PaGwsbGc_RVKx-36" style="edgeStyle=orthogonalEdgeStyle;rounded=0;orthogonalLoop=1;jettySize=auto;html=1;exitX=0.5;exitY=1;exitDx=0;exitDy=0;exitPerimeter=0;entryX=0.5;entryY=0;entryDx=0;entryDy=0;entryPerimeter=0;" edge="1" parent="1" source="g_WhYc-PaGwsbGc_RVKx-17" target="g_WhYc-PaGwsbGc_RVKx-32">
          <mxGeometry relative="1" as="geometry" />
        </mxCell>
        <mxCell id="g_WhYc-PaGwsbGc_RVKx-17" value="world-analytics-api" style="shape=folder;fontStyle=1;tabWidth=120;tabHeight=20;tabPosition=left;html=1;boundedLbl=1;labelInHeader=1;" vertex="1" parent="1">
          <mxGeometry x="370" y="360" width="300" height="70" as="geometry" />
        </mxCell>
        <mxCell id="g_WhYc-PaGwsbGc_RVKx-18" value="Node.js/Express.js Analytics API&lt;br&gt;Logs and serves the world app usage analytics" style="html=1;" vertex="1" parent="g_WhYc-PaGwsbGc_RVKx-17">
          <mxGeometry width="280" height="30" relative="1" as="geometry">
            <mxPoint x="10" y="30" as="offset" />
          </mxGeometry>
        </mxCell>
        <mxCell id="g_WhYc-PaGwsbGc_RVKx-37" style="edgeStyle=orthogonalEdgeStyle;rounded=0;orthogonalLoop=1;jettySize=auto;html=1;exitX=0.5;exitY=1;exitDx=0;exitDy=0;exitPerimeter=0;entryX=0.5;entryY=0;entryDx=0;entryDy=0;entryPerimeter=0;" edge="1" parent="1" source="g_WhYc-PaGwsbGc_RVKx-19" target="g_WhYc-PaGwsbGc_RVKx-33">
          <mxGeometry relative="1" as="geometry" />
        </mxCell>
        <mxCell id="g_WhYc-PaGwsbGc_RVKx-43" style="edgeStyle=orthogonalEdgeStyle;rounded=0;orthogonalLoop=1;jettySize=auto;html=1;exitX=0.25;exitY=1;exitDx=0;exitDy=0;exitPerimeter=0;entryX=0;entryY=0;entryDx=57.5;entryDy=0;entryPerimeter=0;" edge="1" parent="1" source="g_WhYc-PaGwsbGc_RVKx-19" target="g_WhYc-PaGwsbGc_RVKx-41">
          <mxGeometry relative="1" as="geometry">
            <Array as="points">
              <mxPoint x="748" y="430" />
            </Array>
          </mxGeometry>
        </mxCell>
        <mxCell id="g_WhYc-PaGwsbGc_RVKx-19" value="world-weather-api" style="shape=folder;fontStyle=1;tabWidth=115;tabHeight=20;tabPosition=left;html=1;boundedLbl=1;labelInHeader=1;" vertex="1" parent="1">
          <mxGeometry x="690" y="360" width="300" height="70" as="geometry" />
        </mxCell>
        <mxCell id="g_WhYc-PaGwsbGc_RVKx-20" value="Node.js/Express.js Weather API&lt;br&gt;Serves and caches weather data" style="html=1;" vertex="1" parent="g_WhYc-PaGwsbGc_RVKx-19">
          <mxGeometry width="280" height="30" relative="1" as="geometry">
            <mxPoint x="10" y="30" as="offset" />
          </mxGeometry>
        </mxCell>
        <mxCell id="g_WhYc-PaGwsbGc_RVKx-22" value="Countries&lt;br&gt;Cities&lt;br&gt;Languages" style="shape=cylinder3;whiteSpace=wrap;html=1;boundedLbl=1;backgroundOutline=1;size=15;" vertex="1" parent="1">
          <mxGeometry x="160" y="500" width="80" height="90" as="geometry" />
        </mxCell>
        <mxCell id="g_WhYc-PaGwsbGc_RVKx-31" style="edgeStyle=orthogonalEdgeStyle;rounded=0;orthogonalLoop=1;jettySize=auto;html=1;exitX=0.75;exitY=1;exitDx=0;exitDy=0;exitPerimeter=0;" edge="1" parent="1" source="g_WhYc-PaGwsbGc_RVKx-5" target="g_WhYc-PaGwsbGc_RVKx-34">
          <mxGeometry relative="1" as="geometry">
            <mxPoint x="1080" y="500" as="targetPoint" />
            <Array as="points">
              <mxPoint x="1080" y="320" />
            </Array>
          </mxGeometry>
        </mxCell>
        <mxCell id="g_WhYc-PaGwsbGc_RVKx-38" style="edgeStyle=orthogonalEdgeStyle;rounded=0;orthogonalLoop=1;jettySize=auto;html=1;exitX=0.25;exitY=1;exitDx=0;exitDy=0;exitPerimeter=0;entryX=0;entryY=0;entryDx=185;entryDy=20;entryPerimeter=0;" edge="1" parent="1" source="g_WhYc-PaGwsbGc_RVKx-5" target="g_WhYc-PaGwsbGc_RVKx-13">
          <mxGeometry relative="1" as="geometry">
            <Array as="points">
              <mxPoint x="235" y="320" />
            </Array>
          </mxGeometry>
        </mxCell>
        <mxCell id="g_WhYc-PaGwsbGc_RVKx-39" style="edgeStyle=orthogonalEdgeStyle;rounded=0;orthogonalLoop=1;jettySize=auto;html=1;exitX=0.5;exitY=1;exitDx=0;exitDy=0;exitPerimeter=0;entryX=0;entryY=0;entryDx=210;entryDy=20;entryPerimeter=0;" edge="1" parent="1" source="g_WhYc-PaGwsbGc_RVKx-5" target="g_WhYc-PaGwsbGc_RVKx-17">
          <mxGeometry relative="1" as="geometry">
            <Array as="points">
              <mxPoint x="580" y="320" />
            </Array>
          </mxGeometry>
        </mxCell>
        <mxCell id="g_WhYc-PaGwsbGc_RVKx-40" style="edgeStyle=orthogonalEdgeStyle;rounded=0;orthogonalLoop=1;jettySize=auto;html=1;exitX=0.75;exitY=1;exitDx=0;exitDy=0;exitPerimeter=0;entryX=0;entryY=0;entryDx=207.5;entryDy=20;entryPerimeter=0;" edge="1" parent="1" source="g_WhYc-PaGwsbGc_RVKx-5" target="g_WhYc-PaGwsbGc_RVKx-19">
          <mxGeometry relative="1" as="geometry">
            <Array as="points">
              <mxPoint x="898" y="320" />
            </Array>
          </mxGeometry>
        </mxCell>
        <mxCell id="g_WhYc-PaGwsbGc_RVKx-5" value="world-api-gw" style="shape=folder;fontStyle=1;tabWidth=90;tabHeight=20;tabPosition=left;html=1;boundedLbl=1;labelInHeader=1;" vertex="1" parent="1">
          <mxGeometry x="50" y="250" width="1120" height="70" as="geometry" />
        </mxCell>
        <mxCell id="g_WhYc-PaGwsbGc_RVKx-6" value="Node.js/Express.js API Gateway&lt;br&gt;Serves as a reverse proxy for the individual API services, handles API composition and authentication/authorization functionalities" style="html=1;" vertex="1" parent="g_WhYc-PaGwsbGc_RVKx-5">
          <mxGeometry width="1100" height="30" relative="1" as="geometry">
            <mxPoint x="10" y="30" as="offset" />
          </mxGeometry>
        </mxCell>
        <mxCell id="g_WhYc-PaGwsbGc_RVKx-32" value="Views" style="shape=cylinder3;whiteSpace=wrap;html=1;boundedLbl=1;backgroundOutline=1;size=15;" vertex="1" parent="1">
          <mxGeometry x="480" y="500" width="80" height="90" as="geometry" />
        </mxCell>
        <mxCell id="g_WhYc-PaGwsbGc_RVKx-33" value="Cache" style="shape=cylinder3;whiteSpace=wrap;html=1;boundedLbl=1;backgroundOutline=1;size=15;" vertex="1" parent="1">
          <mxGeometry x="800" y="500" width="80" height="90" as="geometry" />
        </mxCell>
        <mxCell id="g_WhYc-PaGwsbGc_RVKx-34" value="Users" style="shape=cylinder3;whiteSpace=wrap;html=1;boundedLbl=1;backgroundOutline=1;size=15;" vertex="1" parent="1">
          <mxGeometry x="1040" y="500" width="80" height="90" as="geometry" />
        </mxCell>
        <mxCell id="g_WhYc-PaGwsbGc_RVKx-41" value="OpenWeatherMap" style="shape=folder;fontStyle=1;tabWidth=115;tabHeight=20;tabPosition=left;html=1;boundedLbl=1;labelInHeader=1;" vertex="1" parent="1">
          <mxGeometry x="690" y="680" width="300" height="70" as="geometry" />
        </mxCell>
        <mxCell id="g_WhYc-PaGwsbGc_RVKx-42" value="Weather data" style="html=1;" vertex="1" parent="g_WhYc-PaGwsbGc_RVKx-41">
          <mxGeometry width="280" height="30" relative="1" as="geometry">
            <mxPoint x="10" y="30" as="offset" />
          </mxGeometry>
        </mxCell>
      </root>
    </mxGraphModel>
  </diagram>
</mxfile>
